<svg xmlns="http://www.w3.org/2000/svg" xmlns:xlink="http://www.w3.org/1999/xlink" width="512" zoomAndPan="magnify" viewBox="0 0 384 383.999986" height="512" preserveAspectRatio="xMidYMid meet" version="1.0"><path fill="#418f9a" d="M 331.363281 254.046875 C 333.964844 242.84375 338.757812 240.175781 349.648438 238.109375 C 349.648438 238.109375 332.351562 237.207031 331.363281 220.210938 C 330.378906 237.207031 313.082031 238.109375 313.082031 238.109375 C 323.972656 240.167969 328.753906 242.84375 331.363281 254.046875 " fill-opacity="1" fill-rule="evenodd"/><path fill="#418f9a" d="M 215.464844 270.375 C 215.464844 227.671875 248.992188 206.589844 284.972656 193.414062 C 297.867188 188.691406 346.304688 170.75 362.699219 132.503906 C 362.699219 132.503906 371.664062 152.492188 364.746094 174.210938 C 357.824219 195.929688 338.734375 208.59375 322.128906 214.03125 C 321.070312 214.375 319.925781 214.710938 318.722656 215.027344 C 357.625 205.113281 382.453125 186.65625 374.832031 143.761719 C 373.992188 139.019531 372.554688 133.40625 370.5625 128.96875 C 368.90625 125.273438 363.65625 110.742188 358.738281 119.871094 L 354.785156 129.105469 C 342.570312 157.613281 309.800781 175.144531 282.015625 185.3125 C 242.367188 199.824219 206.847656 223.683594 206.847656 270.375 C 206.847656 283.226562 211.105469 295.421875 218.421875 305.449219 C 229.859375 321.125 246.152344 328.617188 262.433594 329.375 C 281.964844 330.277344 300.886719 321.503906 312.117188 305.546875 C 315.878906 300.613281 318.753906 295.253906 320.617188 289.566406 C 322.683594 283.300781 323.523438 276.671875 322.976562 269.808594 C 322.570312 264.675781 321.394531 259.421875 319.371094 254.101562 C 319.214844 253.691406 319.003906 253.335938 318.730469 253.019531 C 317.757812 251.875 316.140625 251.40625 314.652344 251.960938 C 312.765625 252.675781 311.800781 254.78125 312.515625 256.683594 C 313.152344 258.371094 313.699219 260.050781 314.148438 261.71875 C 316.570312 270.699219 316.257812 279.355469 313.65625 287.265625 C 310.921875 295.597656 305.636719 303.175781 298.328125 309.542969 C 296.726562 311.105469 294.964844 312.542969 293.097656 313.824219 C 289.910156 316.015625 286.390625 317.789062 282.710938 319.113281 C 250.1875 330.769531 215.464844 304.476562 215.464844 270.375 " fill-opacity="1" fill-rule="evenodd"/><path fill="#418f9a" d="M 273.105469 233.242188 C 282.300781 232.121094 291.566406 233.652344 298.414062 239.769531 C 300.132812 241.3125 302.773438 241.164062 304.316406 239.441406 C 305.859375 237.722656 305.710938 235.078125 303.992188 233.535156 C 301.570312 231.363281 298.949219 229.644531 296.179688 228.300781 C 288.726562 224.679688 280.246094 223.882812 271.921875 224.933594 C 271.1875 225.027344 270.441406 225.132812 269.710938 225.257812 C 266.699219 226.117188 263.828125 227.0625 261.144531 228.109375 C 251.078125 232.054688 242.753906 239.160156 237.113281 247.828125 C 227.355469 262.832031 225.613281 282.554688 236.726562 298.832031 C 246.550781 313.214844 263.816406 319.4375 281.828125 314.410156 C 293.003906 311.296875 301.8125 303.644531 307.933594 292.019531 C 302.511719 297.214844 296.011719 300.675781 289.261719 301.371094 C 288.246094 301.472656 287.21875 301.515625 286.191406 301.496094 C 276.679688 301.265625 271.910156 296.039062 264.425781 291.476562 C 257.925781 287.5 252.597656 286.597656 242.011719 291.003906 C 240.28125 291.726562 238.402344 292.585938 236.359375 293.605469 C 231.609375 281.980469 230.917969 270.019531 236.316406 258.539062 C 239.851562 251.039062 245.566406 244.375 252.199219 240.175781 C 258.1875 236.839844 265.496094 234.21875 272.925781 233.273438 C 272.992188 233.253906 273.054688 233.253906 273.105469 233.242188 " fill-opacity="1" fill-rule="evenodd"/><path fill="#418f9a" d="M 162.195312 251.582031 C 153.945312 266.628906 155.71875 285.945312 162.226562 302.335938 C 166.988281 314.316406 173.992188 325.007812 182.722656 333.789062 C 204.519531 355.710938 232.597656 362.152344 262.421875 358.855469 C 285.226562 356.339844 303.9375 343.277344 314.003906 333.519531 C 324.066406 323.761719 335.074219 308.652344 339.480469 289.765625 C 343.882812 270.878906 341.660156 258.738281 341.660156 258.738281 C 340.179688 279.914062 332.078125 297.046875 321.382812 309.835938 C 306.507812 327.640625 285.675781 339.039062 262.035156 337.945312 C 223.023438 336.140625 194.289062 300.257812 197.558594 262.136719 C 198.816406 247.492188 204.835938 235.960938 212.898438 223.863281 C 213.085938 223.578125 213.273438 223.296875 213.464844 223.023438 C 213.464844 223.023438 208.191406 224.964844 205.222656 225.601562 C 201.773438 226.347656 198.304688 227.113281 194.894531 228.089844 C 181.886719 231.816406 168.875 239.402344 162.195312 251.582031 " fill-opacity="1" fill-rule="evenodd"/><path fill="#ffffff" d="M 256.574219 295.210938 C 259.203125 295.210938 261.332031 297.339844 261.332031 299.972656 C 261.332031 302.609375 259.203125 304.738281 256.574219 304.738281 C 253.941406 304.738281 251.8125 302.609375 251.8125 299.972656 C 251.8125 297.339844 253.953125 295.210938 256.574219 295.210938 " fill-opacity="1" fill-rule="evenodd"/><path fill="#ffffff" d="M 276.230469 304.265625 C 278.117188 304.265625 279.648438 305.796875 279.648438 307.6875 C 279.648438 309.574219 278.117188 311.105469 276.230469 311.105469 C 274.34375 311.105469 272.8125 309.574219 272.8125 307.6875 C 272.8125 305.796875 274.34375 304.265625 276.230469 304.265625 " fill-opacity="1" fill-rule="evenodd"/><path fill="#72c2c1" d="M 265.777344 307.253906 C 266.753906 307.253906 267.550781 308.054688 267.550781 309.027344 C 267.550781 310.003906 266.753906 310.800781 265.777344 310.800781 C 264.800781 310.800781 264.003906 310.003906 264.003906 309.027344 C 264.003906 308.042969 264.800781 307.253906 265.777344 307.253906 " fill-opacity="1" fill-rule="evenodd"/><path fill="#72c2c1" d="M 246.632812 298.945312 C 247.609375 298.945312 248.40625 299.742188 248.40625 300.71875 C 248.40625 301.695312 247.609375 302.492188 246.632812 302.492188 C 245.660156 302.492188 244.863281 301.695312 244.863281 300.71875 C 244.863281 299.742188 245.648438 298.945312 246.632812 298.945312 " fill-opacity="1" fill-rule="evenodd"/><path fill="#418f9a" d="M 295.457031 272.117188 C 299.671875 272.117188 303.089844 275.535156 303.089844 279.753906 C 303.089844 283.972656 299.671875 287.394531 295.457031 287.394531 C 291.242188 287.394531 287.824219 283.972656 287.824219 279.753906 C 287.835938 275.535156 291.242188 272.117188 295.457031 272.117188 " fill-opacity="1" fill-rule="evenodd"/><path fill="#418f9a" d="M 267.464844 264.476562 C 270.117188 264.476562 272.265625 266.628906 272.265625 269.285156 C 272.265625 271.9375 270.117188 274.089844 267.464844 274.089844 C 264.8125 274.089844 262.664062 271.9375 262.664062 269.285156 C 262.675781 266.628906 264.824219 264.476562 267.464844 264.476562 " fill-opacity="1" fill-rule="evenodd"/><path fill="#418f9a" d="M 284.449219 247.007812 C 287.101562 247.007812 289.25 249.160156 289.25 251.8125 C 289.25 254.46875 287.101562 256.621094 284.449219 256.621094 C 281.796875 256.621094 279.648438 254.46875 279.648438 251.8125 C 279.648438 249.160156 281.808594 247.007812 284.449219 247.007812 " fill-opacity="1" fill-rule="evenodd"/><path fill="#ffffff" d="M 293.351562 276.417969 C 294.210938 275.570312 295.175781 275.160156 295.519531 275.503906 C 295.855469 275.851562 295.4375 276.816406 294.578125 277.65625 C 293.71875 278.507812 292.753906 278.914062 292.40625 278.570312 C 292.070312 278.222656 292.492188 277.269531 293.351562 276.417969 " fill-opacity="1" fill-rule="evenodd"/><path fill="#418f9a" d="M 195.261719 137.277344 C 217.84375 137.277344 236.148438 155.597656 236.148438 178.199219 C 236.148438 200.800781 217.84375 219.121094 195.261719 219.121094 C 193.355469 219.121094 191.46875 218.984375 189.621094 218.730469 C 182.042969 221.1875 173.980469 225.246094 167.648438 229.925781 C 142.980469 248.152344 142.089844 279.933594 152.519531 306.195312 C 158.613281 321.523438 168.296875 335.269531 181.046875 346.171875 C 185.09375 349.632812 191.269531 355.183594 191.269531 355.183594 C 174.652344 347.621094 153.664062 332.089844 146.15625 314.800781 C 144.742188 311.535156 143.746094 308.621094 142.382812 306.070312 C 138.816406 299.367188 132.476562 296.710938 125.21875 296.238281 C 119.738281 295.871094 114.011719 296.792969 108.96875 297.613281 C 94.398438 299.984375 78.125 298.863281 66.089844 290.40625 C 57.988281 284.71875 52.222656 277.550781 50.3125 270.195312 C 49.515625 267.113281 49.316406 267.382812 52.09375 267.351562 C 59.582031 267.257812 63.878906 267.40625 67.308594 266.261719 C 57.347656 263.230469 49.410156 260.039062 42.941406 256.261719 C 34.910156 251.5625 27.75 244.320312 22.605469 236 C 14.53125 222.960938 13.378906 211.199219 13.996094 196.183594 C 22.089844 201.480469 26.984375 204.492188 33.613281 207.964844 C 15.820312 188.113281 5.671875 168.09375 14.144531 140.40625 C 15.726562 135.222656 18.597656 129.640625 21.566406 124.867188 C 23.96875 121.003906 27.648438 118.371094 30.277344 124.152344 L 32.710938 129.503906 C 41.925781 149.785156 60.722656 167.402344 80.589844 177.128906 C 90.414062 181.933594 100.90625 185.972656 111.570312 190.042969 C 133.175781 198.300781 147.351562 206.214844 157.824219 226.882812 C 163.078125 221.59375 170.4375 217.585938 177.347656 214.996094 C 163.75 208.355469 154.375 194.367188 154.375 178.210938 C 154.375 155.597656 172.679688 137.277344 195.261719 137.277344 " fill-opacity="1" fill-rule="evenodd"/><path fill="#aedcda" d="M 195.261719 145.460938 C 213.328125 145.460938 227.972656 160.121094 227.972656 178.199219 C 227.972656 196.277344 213.328125 210.933594 195.261719 210.933594 C 177.199219 210.933594 162.554688 196.277344 162.554688 178.199219 C 162.554688 160.121094 177.199219 145.460938 195.261719 145.460938 " fill-opacity="1" fill-rule="evenodd"/><path fill="#ffffff" d="M 165.699219 185.628906 C 165.699219 167.308594 182.292969 152.460938 202.769531 152.460938 C 208.671875 152.460938 214.25 153.699219 219.207031 155.890625 C 213.230469 149.46875 204.71875 145.460938 195.261719 145.460938 C 177.199219 145.460938 162.554688 160.121094 162.554688 178.199219 C 162.554688 184.359375 164.25 190.117188 167.207031 195.039062 C 166.222656 192.058594 165.699219 188.902344 165.699219 185.628906 " fill-opacity="1" fill-rule="evenodd"/><path fill="#418f9a" d="M 292.007812 99.035156 C 302 99.035156 310.09375 107.132812 310.09375 117.132812 C 310.09375 127.132812 302 135.230469 292.007812 135.230469 C 282.015625 135.230469 273.921875 127.132812 273.921875 117.132812 C 273.921875 107.132812 282.027344 99.035156 292.007812 99.035156 " fill-opacity="1" fill-rule="evenodd"/><path fill="#aedcda" d="M 292.007812 104.574219 C 298.9375 104.574219 304.546875 110.199219 304.546875 117.121094 C 304.546875 124.058594 298.925781 129.671875 292.007812 129.671875 C 285.078125 129.671875 279.46875 124.046875 279.46875 117.121094 C 279.46875 110.199219 285.089844 104.574219 292.007812 104.574219 " fill-opacity="1" fill-rule="evenodd"/><path fill="#ffffff" d="M 302.03125 121.183594 C 299.421875 125.90625 295.046875 128.914062 290.570312 129.597656 C 291.042969 129.648438 291.527344 129.683594 292.007812 129.683594 C 298.9375 129.683594 304.546875 124.058594 304.546875 117.132812 C 304.546875 116.09375 304.421875 115.078125 304.179688 114.109375 C 304 116.472656 303.300781 118.894531 302.03125 121.183594 " fill-opacity="1" fill-rule="evenodd"/><path fill="#ffffff" d="M 286.179688 109.832031 C 288.066406 108.371094 290.351562 108.171875 291.273438 109.378906 C 292.207031 110.585938 291.429688 112.738281 289.542969 114.195312 C 287.65625 115.652344 285.371094 115.851562 284.449219 114.644531 C 283.515625 113.449219 284.292969 111.289062 286.179688 109.832031 " fill-opacity="1" fill-rule="evenodd"/><path fill="#418f9a" d="M 255.324219 74.984375 C 260.882812 74.984375 265.390625 79.496094 265.390625 85.058594 C 265.390625 90.617188 260.882812 95.128906 255.324219 95.128906 C 249.769531 95.128906 245.261719 90.617188 245.261719 85.058594 C 245.261719 79.496094 249.769531 74.984375 255.324219 74.984375 " fill-opacity="1" fill-rule="evenodd"/><path fill="#aedcda" d="M 255.324219 78.082031 C 259.183594 78.082031 262.308594 81.207031 262.308594 85.066406 C 262.308594 88.929688 259.183594 92.054688 255.324219 92.054688 C 251.46875 92.054688 248.34375 88.929688 248.34375 85.066406 C 248.351562 81.207031 251.476562 78.082031 255.324219 78.082031 " fill-opacity="1" fill-rule="evenodd"/><path fill="#ffffff" d="M 252.085938 80.996094 C 253.132812 80.1875 254.402344 80.074219 254.925781 80.746094 C 255.441406 81.417969 255.011719 82.613281 253.960938 83.429688 C 252.914062 84.238281 251.644531 84.355469 251.121094 83.683594 C 250.609375 83.011719 251.039062 81.816406 252.085938 80.996094 " fill-opacity="1" fill-rule="evenodd"/><path fill="#418f9a" d="M 127.714844 89.707031 C 131.582031 89.707031 134.71875 92.84375 134.71875 96.714844 C 134.71875 100.585938 131.582031 103.722656 127.714844 103.722656 C 123.847656 103.722656 120.710938 100.585938 120.710938 96.714844 C 120.710938 92.84375 123.847656 89.707031 127.714844 89.707031 " fill-opacity="1" fill-rule="evenodd"/><path fill="#aedcda" d="M 127.714844 91.847656 C 130.398438 91.847656 132.570312 94.019531 132.570312 96.703125 C 132.570312 99.390625 130.398438 101.5625 127.714844 101.5625 C 125.03125 101.5625 122.863281 99.390625 122.863281 96.703125 C 122.863281 94.027344 125.03125 91.847656 127.714844 91.847656 " fill-opacity="1" fill-rule="evenodd"/><path fill="#ffffff" d="M 125.460938 93.882812 C 126.195312 93.316406 127.074219 93.242188 127.433594 93.703125 C 127.789062 94.164062 127.496094 95.003906 126.761719 95.570312 C 126.027344 96.136719 125.148438 96.210938 124.789062 95.75 C 124.421875 95.289062 124.726562 94.449219 125.460938 93.882812 " fill-opacity="1" fill-rule="evenodd"/><path fill="#418f9a" d="M 121.539062 153.71875 C 125.640625 153.71875 128.972656 157.046875 128.972656 161.160156 C 128.972656 165.273438 125.648438 168.597656 121.539062 168.597656 C 117.441406 168.597656 114.105469 165.273438 114.105469 161.160156 C 114.105469 157.046875 117.441406 153.71875 121.539062 153.71875 " fill-opacity="1" fill-rule="evenodd"/><path fill="#aedcda" d="M 121.539062 155.996094 C 124.382812 155.996094 126.699219 158.304688 126.699219 161.160156 C 126.699219 164.003906 124.390625 166.320312 121.539062 166.320312 C 118.699219 166.320312 116.382812 164.011719 116.382812 161.160156 C 116.394531 158.304688 118.699219 155.996094 121.539062 155.996094 " fill-opacity="1" fill-rule="evenodd"/><path fill="#ffffff" d="M 119.148438 158.160156 C 119.925781 157.558594 120.859375 157.476562 121.246094 157.96875 C 121.625 158.460938 121.308594 159.355469 120.535156 159.953125 C 119.757812 160.550781 118.824219 160.632812 118.4375 160.140625 C 118.050781 159.648438 118.375 158.757812 119.148438 158.160156 " fill-opacity="1" fill-rule="evenodd"/><path fill="#418f9a" d="M 271.4375 153.246094 C 274.761719 153.246094 277.457031 155.945312 277.457031 159.269531 C 277.457031 162.597656 274.761719 165.292969 271.4375 165.292969 C 268.117188 165.292969 265.421875 162.597656 265.421875 159.269531 C 265.421875 155.945312 268.117188 153.246094 271.4375 153.246094 " fill-opacity="1" fill-rule="evenodd"/><path fill="#aedcda" d="M 271.4375 155.09375 C 273.746094 155.09375 275.613281 156.960938 275.613281 159.269531 C 275.613281 161.578125 273.746094 163.445312 271.4375 163.445312 C 269.132812 163.445312 267.265625 161.578125 267.265625 159.269531 C 267.265625 156.972656 269.132812 155.09375 271.4375 155.09375 " fill-opacity="1" fill-rule="evenodd"/><path fill="#ffffff" d="M 269.5 156.847656 C 270.128906 156.363281 270.882812 156.289062 271.199219 156.699219 C 271.511719 157.097656 271.25 157.824219 270.621094 158.304688 C 269.992188 158.789062 269.238281 158.859375 268.921875 158.453125 C 268.609375 158.054688 268.871094 157.328125 269.5 156.847656 " fill-opacity="1" fill-rule="evenodd"/><path fill="#418f9a" d="M 279.3125 46.65625 C 283.464844 46.65625 286.820312 50.023438 286.820312 54.167969 C 286.820312 58.324219 283.453125 61.679688 279.3125 61.679688 C 275.160156 61.679688 271.804688 58.3125 271.804688 54.167969 C 271.804688 50.023438 275.160156 46.65625 279.3125 46.65625 " fill-opacity="1" fill-rule="evenodd"/><path fill="#aedcda" d="M 279.3125 48.964844 C 282.183594 48.964844 284.523438 51.292969 284.523438 54.179688 C 284.523438 57.0625 282.195312 59.394531 279.3125 59.394531 C 276.429688 59.394531 274.101562 57.0625 274.101562 54.179688 C 274.101562 51.292969 276.429688 48.964844 279.3125 48.964844 " fill-opacity="1" fill-rule="evenodd"/><path fill="#ffffff" d="M 276.890625 51.144531 C 277.675781 50.539062 278.621094 50.453125 279.007812 50.957031 C 279.394531 51.460938 279.070312 52.351562 278.285156 52.960938 C 277.5 53.570312 276.554688 53.652344 276.167969 53.148438 C 275.777344 52.644531 276.105469 51.753906 276.890625 51.144531 " fill-opacity="1" fill-rule="evenodd"/><path fill="#418f9a" d="M 114.664062 50.789062 C 118.089844 50.789062 120.878906 53.570312 120.878906 57.011719 C 120.878906 60.453125 118.101562 63.234375 114.664062 63.234375 C 111.222656 63.234375 108.445312 60.453125 108.445312 57.011719 C 108.445312 53.570312 111.222656 50.789062 114.664062 50.789062 " fill-opacity="1" fill-rule="evenodd"/><path fill="#aedcda" d="M 114.664062 52.699219 C 117.042969 52.699219 118.972656 54.628906 118.972656 57.011719 C 118.972656 59.394531 117.042969 61.324219 114.664062 61.324219 C 112.28125 61.324219 110.355469 59.394531 110.355469 57.011719 C 110.355469 54.628906 112.28125 52.699219 114.664062 52.699219 " fill-opacity="1" fill-rule="evenodd"/><path fill="#ffffff" d="M 112.660156 54.503906 C 113.308594 54 114.097656 53.9375 114.410156 54.347656 C 114.726562 54.753906 114.464844 55.5 113.8125 56.003906 C 113.164062 56.507812 112.378906 56.570312 112.0625 56.160156 C 111.738281 55.742188 112.011719 54.996094 112.660156 54.503906 " fill-opacity="1" fill-rule="evenodd"/><path fill="#418f9a" d="M 214.070312 46.855469 C 214.132812 54.25 210.777344 61.03125 203.199219 64.167969 C 200.894531 65.121094 198.40625 65.59375 195.921875 65.59375 C 193.4375 65.59375 190.945312 65.113281 188.648438 64.167969 C 182.703125 61.710938 179.359375 57.023438 178.226562 51.535156 C 175.3125 37.496094 190.042969 27.097656 195.921875 15.492188 C 201.835938 27.148438 213.933594 30.414062 214.070312 46.855469 " fill-opacity="1" fill-rule="evenodd"/><path fill="#aedcda" d="M 207.886719 42.195312 C 205.96875 34.253906 198.890625 29.039062 195.921875 23.203125 C 192.96875 29.039062 185.890625 34.253906 183.960938 42.195312 C 178.214844 65.941406 213.628906 65.941406 207.886719 42.195312 " fill-opacity="1" fill-rule="evenodd"/><path fill="#ffffff" d="M 195.347656 25.964844 C 195.347656 25.964844 189.414062 33.363281 187.597656 37.570312 C 186.59375 39.910156 186.089844 42.007812 186.039062 43.75 C 185.859375 50.085938 192.042969 49.539062 192.988281 44.894531 C 193.816406 40.800781 192.832031 37.570312 195.347656 25.964844 " fill-opacity="1" fill-rule="evenodd"/><path fill="#ffffff" d="M 208.222656 43.84375 C 206.398438 51.167969 200.429688 57.316406 194.507812 59.929688 C 202.003906 60.703125 210.171875 55.34375 208.222656 43.84375 " fill-opacity="1" fill-rule="evenodd"/><path fill="#418f9a" d="M 115.460938 125.640625 C 115.523438 132.703125 112.324219 139.175781 105.089844 142.15625 C 102.890625 143.058594 100.519531 143.519531 98.140625 143.519531 C 95.761719 143.519531 93.390625 143.070312 91.191406 142.15625 C 85.519531 139.816406 82.332031 135.335938 81.25 130.101562 C 78.472656 116.703125 92.519531 106.777344 98.140625 95.707031 C 103.78125 106.828125 115.332031 109.945312 115.460938 125.640625 " fill-opacity="1" fill-rule="evenodd"/><path fill="#aedcda" d="M 109.558594 121.195312 C 107.722656 113.617188 100.972656 108.644531 98.152344 103.074219 C 95.320312 108.644531 88.578125 113.617188 86.746094 121.195312 C 81.25 143.847656 115.039062 143.847656 109.558594 121.195312 " fill-opacity="1" fill-rule="evenodd"/><path fill="#ffffff" d="M 97.59375 105.695312 C 97.59375 105.695312 91.933594 112.757812 90.203125 116.777344 C 89.25 119.011719 88.757812 121.015625 88.714844 122.671875 C 88.546875 128.714844 94.449219 128.203125 95.339844 123.765625 C 96.128906 119.859375 95.195312 116.777344 97.59375 105.695312 " fill-opacity="1" fill-rule="evenodd"/><path fill="#ffffff" d="M 109.882812 122.765625 C 108.140625 129.753906 102.449219 135.621094 96.796875 138.117188 C 103.9375 138.839844 111.738281 133.730469 109.882812 122.765625 " fill-opacity="1" fill-rule="evenodd"/><path fill="#418f9a" d="M 225.46875 48.355469 C 223.546875 47.714844 222.519531 45.636719 223.160156 43.71875 C 223.800781 41.796875 225.875 40.769531 227.792969 41.410156 C 239.933594 45.46875 251.046875 51.765625 260.640625 59.792969 C 270.328125 67.902344 278.472656 77.785156 284.597656 88.949219 C 285.570312 90.722656 284.921875 92.957031 283.148438 93.921875 C 281.378906 94.898438 279.144531 94.25 278.179688 92.476562 C 272.507812 82.121094 264.9375 72.9375 255.945312 65.414062 C 247.023438 57.957031 236.714844 52.121094 225.46875 48.355469 M 111.769531 94.910156 C 110.847656 96.703125 108.644531 97.417969 106.851562 96.503906 C 105.058594 95.582031 104.347656 93.378906 105.257812 91.582031 C 111.277344 79.789062 119.515625 69.339844 129.433594 60.789062 C 139.289062 52.289062 150.789062 45.648438 163.390625 41.429688 C 165.3125 40.789062 167.375 41.816406 168.027344 43.738281 C 168.664062 45.660156 167.636719 47.726562 165.71875 48.375 C 154.03125 52.289062 143.355469 58.449219 134.226562 66.328125 C 125.011719 74.28125 117.355469 83.976562 111.769531 94.910156 Z M 277.53125 175.0625 C 276.628906 176.132812 276.042969 176.972656 275.421875 177.757812 C 272.464844 181.523438 278.863281 180.277344 280.433594 179.363281 C 285.414062 176.46875 289.261719 170.433594 291.640625 164.675781 C 294.136719 158.628906 295.132812 150.875 295.582031 144.414062 C 295.730469 142.386719 294.210938 140.636719 292.1875 140.5 C 290.164062 140.351562 288.414062 141.882812 288.277344 143.898438 C 287.898438 149.175781 286.285156 156.40625 284.785156 161.632812 C 283.371094 166.582031 281.429688 170.476562 277.53125 175.0625 Z M 97.929688 164.957031 C 96.988281 161.589844 96.222656 158.160156 95.632812 154.695312 C 95.300781 152.703125 96.652344 150.8125 98.644531 150.476562 C 100.636719 150.140625 102.523438 151.496094 102.859375 153.488281 C 103.402344 156.730469 104.117188 159.910156 104.976562 163.003906 C 106.515625 168.546875 108.507812 172.890625 112.09375 177.371094 C 117.421875 184.023438 110.523438 183.8125 107.324219 181.167969 C 102.785156 177.410156 98.949219 168.628906 97.929688 164.957031 Z M 97.929688 164.957031 " fill-opacity="1" fill-rule="nonzero"/><path fill="#c68728" d="M 195.859375 108.792969 C 215.8125 108.632812 231.988281 111.414062 231.988281 115.023438 C 231.988281 118.621094 215.8125 121.675781 195.859375 121.832031 C 175.910156 121.992188 159.734375 119.210938 159.734375 115.601562 C 159.734375 112.011719 175.910156 108.960938 195.859375 108.792969 M 195.859375 101.910156 C 221.136719 101.582031 241.621094 107.1875 241.621094 114.425781 C 241.621094 121.664062 221.136719 127.792969 195.859375 128.117188 C 170.582031 128.445312 150.097656 122.839844 150.097656 115.601562 C 150.097656 108.359375 170.582031 102.222656 195.859375 101.910156 Z M 195.859375 101.910156 " fill-opacity="1" fill-rule="evenodd"/><path fill="#77c5c2" d="M 205.578125 332.585938 C 181.761719 306.824219 183.238281 273.398438 201.59375 244.730469 C 204.363281 237.503906 208.304688 230.765625 212.917969 223.851562 C 213.105469 223.566406 213.296875 223.285156 213.484375 223.011719 C 213.484375 223.011719 208.210938 224.953125 205.242188 225.59375 C 201.792969 226.339844 198.324219 227.105469 194.917969 228.078125 C 181.894531 231.816406 168.886719 239.402344 162.207031 251.574219 C 155.601562 263.617188 155.425781 278.410156 158.957031 292.242188 C 169.347656 322.574219 197.445312 342.542969 228.558594 349.824219 C 219.585938 345.101562 211.847656 339.371094 205.578125 332.585938 " fill-opacity="1" fill-rule="evenodd"/><path fill="#aedcda" d="M 138.492188 292.515625 C 138.492188 292.515625 132.277344 287.003906 123.15625 287.636719 C 114.035156 288.265625 104.671875 291.484375 92.40625 290.941406 C 82.6875 290.5 68.839844 283.449219 63.386719 274.84375 C 63.386719 274.84375 74.90625 273.628906 82.300781 270.554688 C 91.566406 266.703125 105.941406 265.066406 114.621094 271.097656 C 114.621094 271.097656 113.761719 265.675781 103.140625 262.683594 C 94.386719 260.21875 87.183594 261.394531 75.535156 259.410156 C 67.410156 258.023438 59.382812 255.632812 52.179688 251.5625 C 36.96875 242.980469 28.035156 228.65625 23.023438 210.199219 C 23.023438 210.199219 38.519531 220.347656 54.476562 223.976562 C 66.417969 226.683594 92.152344 233.117188 101.96875 240.746094 C 96.683594 229.148438 82.195312 226.253906 71.492188 221.679688 C 60.628906 217.042969 50.5 211.28125 42.105469 203.746094 C 22.039062 185.742188 14.941406 161.746094 26.085938 136.46875 C 42.835938 173.320312 76.332031 186.121094 108.382812 198.375 C 128.730469 206.160156 141.585938 212.960938 151.136719 233.546875 C 151.148438 233.535156 131.648438 255.652344 138.492188 292.515625 " fill-opacity="1" fill-rule="evenodd"/><path fill="#ffffff" d="M 63.398438 274.855469 C 64.320312 276.304688 65.472656 277.707031 66.804688 279.042969 C 82.226562 282.859375 105.226562 265.210938 114.621094 271.109375 C 105.949219 265.074219 91.566406 266.710938 82.300781 270.5625 C 74.917969 273.628906 63.398438 274.855469 63.398438 274.855469 " fill-opacity="1" fill-rule="evenodd"/><path fill="#ffffff" d="M 46.140625 229.925781 C 64.695312 235.519531 95.203125 236.136719 101.96875 240.742188 C 92.152344 233.117188 66.417969 226.695312 54.476562 223.976562 C 38.519531 220.355469 23.023438 210.199219 23.023438 210.199219 C 23.023438 210.199219 27.582031 224.335938 46.140625 229.925781 " fill-opacity="1" fill-rule="evenodd"/><path fill="#ffffff" d="M 71.855469 193.726562 C 97.175781 206.328125 134.121094 212.550781 145.851562 241.53125 C 148.703125 236.316406 151.148438 233.535156 151.148438 233.535156 C 141.597656 212.949219 128.742188 206.152344 108.394531 198.367188 C 76.34375 186.109375 42.839844 173.320312 26.09375 136.460938 C 25.351562 138.140625 24.699219 139.808594 24.113281 141.476562 C 30.058594 164.234375 51.992188 183.832031 71.855469 193.726562 " fill-opacity="1" fill-rule="evenodd"/><path fill="#aedcda" d="M 362.699219 132.503906 C 362.699219 132.503906 371.664062 152.492188 364.746094 174.210938 C 357.824219 195.929688 338.734375 208.59375 322.128906 214.03125 C 308.183594 218.59375 279.835938 220.789062 261.144531 228.109375 C 233.65625 238.886719 219.199219 273.15625 236.726562 298.832031 C 246.550781 313.214844 263.816406 319.4375 281.828125 314.410156 C 293.003906 311.296875 301.8125 303.644531 307.933594 292.019531 C 305.417969 305.304688 294.984375 314.707031 282.710938 319.113281 C 250.1875 330.78125 215.464844 304.484375 215.464844 270.386719 C 215.464844 227.679688 248.992188 206.601562 284.972656 193.421875 C 297.867188 188.691406 346.304688 170.75 362.699219 132.503906 " fill-opacity="1" fill-rule="evenodd"/><path fill="#ffffff" d="M 362.699219 132.503906 C 346.304688 170.75 297.867188 188.691406 284.972656 193.414062 C 250.796875 205.929688 218.839844 225.570312 215.71875 264.101562 C 226.628906 232.527344 243.164062 220.398438 265.105469 210.933594 C 287.6875 201.199219 310.996094 195.480469 331.625 181.492188 C 347.257812 170.894531 361.871094 155.210938 362.699219 132.503906 " fill-opacity="1" fill-rule="evenodd"/></svg>